<svg width="70" height="70" fill="none" xmlns="http://www.w3.org/2000/svg"><path d="M0 33.6c0-11.761 0-17.642 2.289-22.134a21 21 0 019.177-9.177C15.958 0 21.84 0 33.6 0h2.8c11.761 0 17.642 0 22.134 2.289a21 21 0 019.177 9.177C70 15.958 70 21.84 70 33.6v2.8c0 11.761 0 17.642-2.289 22.134a21 21 0 01-9.177 9.177C54.042 70 48.16 70 36.4 70h-2.8c-11.761 0-17.642 0-22.134-2.289a21 21 0 01-9.177-9.177C0 54.042 0 48.16 0 36.4v-2.8z" fill="#F5A337"/><path d="M69.983 27.34C70 29.226 70 31.3 70 33.6v2.8c0 11.761 0 17.642-2.289 22.134a21 21 0 01-9.177 9.177C54.042 70 48.16 70 36.4 70h-2.8c-7.933 0-13.19 0-17.15-.702C21.313 45.335 42.5 27.3 67.897 27.3c.699 0 1.394.014 2.085.04z" fill="#F7B55F"/><path d="M31.5 52.5a1.75 1.75 0 01-1.638-2.364L34.224 38.5H22.75a1.75 1.75 0 01-1.3-2.92l15.75-17.5a1.75 1.75 0 012.94 1.785L35.774 31.5H47.25a1.75 1.75 0 011.3 2.92L32.8 51.92c-.341.38-.818.58-1.3.58z" fill="#fff"/></svg>