<svg width="70" height="70" fill="none" xmlns="http://www.w3.org/2000/svg"><path d="M0 33.6c0-11.761 0-17.642 2.289-22.134a21 21 0 019.177-9.177C15.958 0 21.84 0 33.6 0h2.8c11.761 0 17.642 0 22.134 2.289a21 21 0 019.177 9.177C70 15.958 70 21.84 70 33.6v2.8c0 11.761 0 17.642-2.289 22.134a21 21 0 01-9.177 9.177C54.042 70 48.16 70 36.4 70h-2.8c-11.761 0-17.642 0-22.134-2.289a21 21 0 01-9.177-9.177C0 54.042 0 48.16 0 36.4v-2.8z" fill="#37C994"/><path d="M69.983 27.34C70 29.226 70 31.3 70 33.6v2.8c0 11.761 0 17.642-2.289 22.134a21 21 0 01-9.177 9.177C54.042 70 48.16 70 36.4 70h-2.8c-7.933 0-13.19 0-17.15-.702C21.313 45.335 42.5 27.3 67.897 27.3c.699 0 1.394.014 2.085.04z" fill="#5FD4AA"/><path fill-rule="evenodd" clip-rule="evenodd" d="M41.817 19.037a1.75 1.75 0 01.052 2.474l-15.442 16.1a1.75 1.75 0 01-2.5.027l-5.562-5.559a1.75 1.75 0 112.474-2.476l4.299 4.297 14.205-14.811a1.75 1.75 0 012.474-.052zM17.5 45.15c0-.966.784-1.75 1.75-1.75h31.5a1.75 1.75 0 110 3.5h-31.5a1.75 1.75 0 01-1.75-1.75zm16.8-9.1c0-.966.784-1.75 1.75-1.75h14.7a1.75 1.75 0 110 3.5h-14.7a1.75 1.75 0 01-1.75-1.75zm9.098-9.1c0-.966.784-1.75 1.75-1.75h5.6a1.75 1.75 0 110 3.5h-5.6a1.75 1.75 0 01-1.75-1.75z" fill="#fff"/></svg>