<svg width="70" height="70" fill="none" xmlns="http://www.w3.org/2000/svg"><path d="M0 33.6c0-11.761 0-17.642 2.289-22.134a21 21 0 019.177-9.177C15.958 0 21.84 0 33.6 0h2.8c11.761 0 17.642 0 22.134 2.289a21 21 0 019.177 9.177C70 15.958 70 21.84 70 33.6v2.8c0 11.761 0 17.642-2.289 22.134a21 21 0 01-9.177 9.177C54.042 70 48.16 70 36.4 70h-2.8c-11.761 0-17.642 0-22.134-2.289a21 21 0 01-9.177-9.177C0 54.042 0 48.16 0 36.4v-2.8z" fill="#374FC7"/><path d="M69.983 27.34C70 29.226 70 31.3 70 33.6v2.8c0 11.761 0 17.642-2.289 22.134a21 21 0 01-9.177 9.177C54.042 70 48.16 70 36.4 70h-2.8c-7.933 0-13.19 0-17.15-.702C21.313 45.335 42.5 27.3 67.897 27.3c.699 0 1.394.014 2.085.04z" fill="#5F72D2"/><path fill-rule="evenodd" clip-rule="evenodd" d="M28.033 24.947c-1.824 1.289-3.334 3.241-3.761 6.203h.229a3.15 3.15 0 013.15 3.15v11.2a3.15 3.15 0 01-3.15 3.15h-1.4a8.05 8.05 0 01-8.05-8.05v-1.4c0-3.613 2.38-6.67 5.658-7.689.379-4.429 2.562-7.485 5.304-9.423 2.939-2.076 6.459-2.838 8.988-2.838s6.049.762 8.987 2.838c2.742 1.938 4.926 4.994 5.305 9.423A8.054 8.054 0 0154.95 39.2v1.4a8.05 8.05 0 01-8.05 8.05h-1.173c-.166.79-.555 1.664-1.462 2.38-1.328 1.049-3.435 1.47-6.465 1.47a3.5 3.5 0 11.407-3.503c2.611-.04 3.572-.464 3.89-.714.148-.118.253-.234.253-1.033V34.3a3.15 3.15 0 013.15-3.15h.229c-.427-2.962-1.937-4.914-3.762-6.203-2.243-1.586-5.023-2.197-6.967-2.197-1.945 0-4.724.611-6.968 2.197zM46.901 45.15h-1.05v-10.5h1.05a4.55 4.55 0 014.55 4.55v1.4a4.55 4.55 0 01-4.55 4.55zm-23.8-10.5a4.55 4.55 0 00-4.55 4.55v1.4a4.55 4.55 0 004.55 4.55h1.05v-10.5H23.1z" fill="#fff"/></svg>