<svg width="150" height="30" fill="none" xmlns="http://www.w3.org/2000/svg"><path fill-rule="evenodd" clip-rule="evenodd" d="M95.874 29.93c.453 0 .896-.135 1.273-.391.377-.256.67-.62.844-1.045.174-.425.22-.894.131-1.346a2.341 2.341 0 00-.626-1.193 2.278 2.278 0 00-1.172-.638 2.253 2.253 0 00-1.323.132 2.3 2.3 0 00-1.028.858 2.359 2.359 0 00.284 2.94 2.27 2.27 0 001.617.683zm14.641-27.883a13.455 13.455 0 015.481 1.162 13.666 13.666 0 014.562 3.302 16.239 16.239 0 00-2.008 3.977 9.726 9.726 0 00-4.8-3.79 9.542 9.542 0 00-6.075-.139 9.706 9.706 0 00-4.964 3.565 9.98 9.98 0 00-1.903 5.87 9.98 9.98 0 001.903 5.87 9.706 9.706 0 004.964 3.566 9.542 9.542 0 006.075-.14 9.726 9.726 0 004.8-3.79 16.508 16.508 0 002.008 3.977 13.68 13.68 0 01-5.642 3.709c-2.154.74-4.455.925-6.697.535a13.591 13.591 0 01-6.142-2.766 13.91 13.91 0 01-4.111-5.404A14.155 14.155 0 0199.06 8.35a13.8 13.8 0 014.943-4.627 13.52 13.52 0 016.511-1.68v.005zm-29.271 0a13.455 13.455 0 015.48 1.162 13.659 13.659 0 014.562 3.302 16.265 16.265 0 00-2.008 3.977 9.722 9.722 0 00-4.8-3.79 9.54 9.54 0 00-6.075-.139 9.7 9.7 0 00-4.963 3.565 9.978 9.978 0 00-1.904 5.87c0 2.114.668 4.172 1.904 5.87a9.7 9.7 0 004.963 3.566 9.54 9.54 0 006.075-.14 9.721 9.721 0 004.8-3.79 16.524 16.524 0 002.008 3.977 13.68 13.68 0 01-5.642 3.709 13.48 13.48 0 01-6.696.535 13.59 13.59 0 01-6.142-2.766 13.911 13.911 0 01-4.112-5.404A14.154 14.154 0 0169.79 8.35a13.794 13.794 0 014.944-4.627c2-1.1 4.237-1.678 6.51-1.68v.005z" fill="#fff"/><path d="M64.727 13.463a16.112 16.112 0 00-.532-2.109c-.068-.189-.147-.38-.213-.554l-.014-.027a1.461 1.461 0 00-.106-.27l-.04-.096-.08-.162a13.674 13.674 0 00-2.739-4.027l-.094-.096L60.79 6c-.066-.053-.131-.122-.2-.189l-.011-.014a13.392 13.392 0 00-4.15-2.664h-.011c-.094-.04-.174-.067-.266-.108-.054-.014-.094-.04-.145-.055a.632.632 0 00-.134-.055c-.08-.026-.174-.067-.266-.093h-.014a13.212 13.212 0 00-5.162-.67c-.066 0-.12.012-.172.012a.463.463 0 01-.134.015 13.194 13.194 0 00-4.323 1.11l-.08.04c-.072.028-.143.06-.211.096-.06.023-.118.05-.174.08l-.12.054c-.092.04-.172.095-.266.136h-.012a13.587 13.587 0 00-3.33 2.492l-.12.122-.08.08a13.868 13.868 0 00-2.941 4.736l-.04.122c-.012.052-.04.107-.052.162-.028.094-.054.175-.08.256l-.014.04a14.22 14.22 0 00-.677 4.939v.026c0 .096.012.19.012.285 0 .055.014.108.014.163l.014.136c.12 1.403.448 2.78.97 4.084v.015l.12.284.038.093c.029.067.054.122.08.19.035.061.067.125.094.19l.04.094a14.087 14.087 0 002.586 3.68l.094.096.12.122c.055.07.117.133.186.189l.026.026a13.319 13.319 0 004.137 2.666h.012c.08.045.166.081.254.108l.16.067.12.04c1.75.632 3.61.895 5.465.773l.091-.014c.069 0 .134-.015.2-.015a13.76 13.76 0 004.043-1l.069-.028.065-.026.12-.055c.08-.04.146-.067.235-.108l.054-.026c.358-.177.706-.352 1.049-.555l.028-.014c.64-.373 1.25-.798 1.822-1.272a13.88 13.88 0 003.004-3.477l.028-.027-3.418-2.138-.028.041a9.598 9.598 0 01-2.116 2.449 9.61 9.61 0 01-2.061 1.313l-.04.014-.146.067-.106.04-.04.015h-.04a10.02 10.02 0 01-1.901.569c-.235.04-.494.081-.734.108h-.011c-.069 0-.134.014-.2.014s-.12.012-.174.012h-.04a9.376 9.376 0 01-3.87-.54l-.054-.027-.145-.055-.146-.055h-.054a9.728 9.728 0 01-2.924-1.882l-.015-.012c-.054-.04-.094-.095-.145-.136l-.094-.093-.052-.055a9.863 9.863 0 01-.654-.744 9.446 9.446 0 01-1.076-1.674v-.014c-.026-.053-.066-.122-.092-.19l-.04-.08-.054-.122a1.486 1.486 0 01-.066-.149l-.028-.055a10 10 0 01-.597-1.913H64.83c.215-1.528.18-3.082-.103-4.599zm-3.978.529v-.014H41.786c.08-.352.172-.703.28-1.04l.011-.024c.015-.056.04-.122.055-.177l.04-.122.025-.067A9.957 9.957 0 0144.273 9.2l.106-.094.066-.069c.235-.239.47-.445.719-.662a8.958 8.958 0 011.645-1.096l.026-.014c.055-.036.112-.067.172-.093l.094-.04.12-.056.16-.081.04-.012a10.044 10.044 0 013.072-.787h.026c.066 0 .12-.012.186-.012l.145-.014h.054a9.773 9.773 0 013.418.478h.015c.051.026.12.04.185.067l.106.04.094.041.2.082a9.77 9.77 0 012.905 1.891l.04.04c.033.04.07.077.108.11l.132.135.014.014c.238.233.464.479.675.737.513.647.946 1.356 1.288 2.111l.04.094.04.08a.69.69 0 00.068.178v.04a9.67 9.67 0 01.503 1.675l.014.009z" fill="#fff"/><path fill-rule="evenodd" clip-rule="evenodd" d="M29.632 2.059V29.97h3.989V2.047l-3.99.012zm-8.765 0V15.9c0 1.624-.413 2.449-1.41 3.381l-7.022 5.412-7.028-5.412c-1-.932-1.41-1.757-1.41-3.381V2.059H0V16.48c0 3.826 1.175 4.723 3.232 6.304l9.19 7.145 9.188-7.145c2.062-1.58 3.233-2.475 3.233-6.304V2.047l-3.976.012zm114.635 4.204a9.59 9.59 0 00-6.982 1.539 9.843 9.843 0 00-3.571 4.435 10.035 10.035 0 00-.548 5.705 9.933 9.933 0 002.66 5.054 9.656 9.656 0 004.971 2.7 9.556 9.556 0 005.608-.565 9.747 9.747 0 004.355-3.637 10 10 0 001.551-6.79l3.963-.518a14.092 14.092 0 01-2.358 9.753 13.718 13.718 0 01-6.509 5.1 13.47 13.47 0 01-8.207.389 13.664 13.664 0 01-6.949-4.46 14.056 14.056 0 01-3.188-7.703 14.127 14.127 0 011.722-8.173 13.781 13.781 0 016.01-5.698 13.482 13.482 0 018.135-1.172l-.663 4.041z" fill="#fff"/><path d="M140.976 0c4.093 1.847 7.327 5.232 9.024 9.448h-.016l-15.955 6.423L140.976 0z" fill="#F5A337"/></svg>